<?xml version="1.0" encoding="UTF-8"?><svg id="a" xmlns="http://www.w3.org/2000/svg" width="460" height="150" viewBox="0 0 460 150"><defs><style>.b{fill:#4B4B4B;}.c{fill:#5B5B5B;}</style></defs><path class="c" d="M57.33,91.55h-1.83v-18.87c0-.94,1-2.46,3.67-6.24,2-2.92,4.61-6.55,5.16-8.44,.08-.3,.14-.61,.17-.92,.16-1.9-.99-3.66-2.79-4.27-1.21-.13-2.41,.31-3.25,1.19l.27,.4c.91,1.4,1.64,3.42,1,4.88-.61,1.49-2.32,2.2-3.81,1.59-.72-.3-1.29-.87-1.59-1.59-.6-1.51,.37-3.69,1.68-5.3-.75-.72-1.75-1.15-2.79-1.19h0c-1.03,.04-2.01,.46-2.75,1.17,1.32,1.62,2.31,3.81,1.7,5.32-.62,1.5-2.34,2.21-3.84,1.59-.72-.3-1.29-.87-1.59-1.59-.66-1.46,.06-3.47,.95-4.87l.31-.41c-.84-.86-2.04-1.28-3.24-1.14-1.8,.61-2.95,2.37-2.79,4.27,.02,.3,.07,.59,.15,.88,.48,1.8,3,5.47,5.11,8.42,2.68,3.83,3.7,5.36,3.7,6.3v18.76h-1.88v-18.81c-.1-.6-1.91-3.18-3.36-5.26-2.37-3.38-4.81-6.88-5.38-9-.1-.38-.16-.78-.2-1.17-.24-2.79,1.49-5.37,4.15-6.22,1.79-.32,3.61,.25,4.9,1.53,1.08-1.03,2.51-1.63,4-1.68h0c1.51,.05,2.96,.65,4.05,1.7,1.29-1.29,3.13-1.87,4.92-1.55,2.66,.85,4.39,3.43,4.15,6.22-.04,.42-.12,.83-.23,1.23-.64,2.19-3.18,5.8-5.42,9-1.44,2.05-3.24,4.6-3.34,5.23l.04,18.84Zm-.15-36.22c-1,1.31-1.41,2.65-1.19,3.21,.2,.38,.57,.64,1,.68h0c.43-.06,.8-.33,1-.72,.18-1.12-.13-2.27-.84-3.15l.03-.02Zm-8,0v.06c-.71,.88-1.01,2.02-.83,3.14,.2,.39,.57,.66,1,.72h0c.43-.05,.8-.31,1-.69,.31-.56-.13-1.94-1.12-3.26l-.05,.03Z"/><path class="b" d="M186.27,28h-32.54c-7.25,0-13,2.13-17.34,6.34-4.13,3.89-6.45,9.33-6.39,15v21.36c0,5.63,2.33,11.01,6.44,14.86,4.41,4.31,10.14,6.44,17.29,6.44h32.54c7.15,0,12.87-2.13,17.29-6.44,4.11-3.85,6.44-9.23,6.44-14.86v-21.4c.06-5.67-2.26-11.11-6.39-15-4.31-4.17-10.09-6.3-17.34-6.3Zm6.18,40c.1,2.65-1,5.2-3,6.94-2.16,1.77-4.87,2.7-7.66,2.63h-23.59c-2.79,.07-5.5-.86-7.66-2.63-2-1.74-3.1-4.29-3-6.94v-16.27c-.11-2.66,.96-5.22,2.94-7,2.15-1.83,4.9-2.8,7.72-2.73h23.6c2.81-.07,5.56,.89,7.71,2.7,1.98,1.78,3.05,4.34,2.94,7v16.3Z"/><rect class="b" x="334.47" y="28" width="17.44" height="64"/><path class="b" d="M429,70.7c-.44,1.64-1.36,3.1-2.64,4.21-2.16,1.76-4.87,2.7-7.66,2.63h-23.6c-2.79,.07-5.5-.87-7.66-2.63-2-1.74-3.1-4.29-3-6.94v-16.24c-.11-2.66,.96-5.22,2.94-7,2.15-1.81,4.9-2.77,7.71-2.7h23.6c2.81-.07,5.56,.89,7.71,2.7,1.3,1.15,2.22,2.68,2.63,4.37h17.87c0-5.59-2.31-10.93-6.38-14.77-4.31-4.21-10.1-6.34-17.35-6.34h-32.53c-7.25,0-13,2.13-17.34,6.34-4.13,3.89-6.45,9.33-6.39,15v21.37c0,5.63,2.33,11.01,6.44,14.86,4.41,4.31,10.14,6.44,17.29,6.44h32.53c7.16,0,12.88-2.13,17.3-6.44,4.11-3.85,6.44-9.23,6.44-14.86h-17.91Z"/><polygon class="b" points="319 28 301.45 28 301.45 54.82 301.45 92 319 92 319 28"/><polygon class="c" points="225 28 242.55 28 242.55 54.82 242.55 92 225 92 225 28"/><polygon class="b" points="225 28 261.93 91.26 272 75.15 242.55 28 225 28"/><polygon class="c" points="301.45 50.09 301.45 28 261.93 91.26 282.07 91.26 301.45 58.06 301.45 50.09"/><path class="b" d="M53.21,33c13.14-.04,23.82,10.57,23.87,23.71,.03,9.13-5.17,17.47-13.38,21.47-1.23,.6-2,1.85-2,3.21v9.06h-16.87v-9c0-1.36-.77-2.61-2-3.21-8.86-4.27-14.17-13.57-13.33-23.37,.87-10.87,11.22-21.08,22.15-21.78,.52,0,1-.05,1.56-.05m0-2.73c-.57,0-1.15,0-1.73,.05-12.34,.79-23.72,12-24.7,24.29-.89,10.9,5.01,21.22,14.84,26,.29,.14,.47,.43,.47,.75v9.84c-.02,1.06,.83,1.93,1.89,1.95,0,0,.01,0,.02,0h18.63c.99,0,1.79-.81,1.8-1.8v-10c0-.32,.18-.61,.47-.76,13.14-6.46,18.56-22.35,12.1-35.5-4.46-9.07-13.68-14.82-23.79-14.82Z"/><path class="b" d="M57.84,106.26h-9.22c-.59,0-1.06,.47-1.06,1.06s.47,1.06,1.06,1.06h1.2c0,.27,.63,2.13,3.41,2.13s3.41-1.88,3.41-2.13h1.2c.59,0,1.06-.47,1.06-1.06s-.47-1.06-1.06-1.06Z"/><path class="b" d="M61.32,104.79h-16.18c-.78,0-1.42-.64-1.42-1.42,0-.78,.64-1.42,1.42-1.42h16.18c.78,0,1.42,.63,1.42,1.42,0,.78-.63,1.42-1.42,1.42h0Z"/><path class="b" d="M62.29,98.78h-18.12c-.78,0-1.42-.64-1.42-1.42,0-.78,.64-1.42,1.42-1.42h18.12c.78,0,1.42,.63,1.42,1.42,0,.78-.63,1.42-1.42,1.42h0Z"/><path class="b" d="M76.33,99.19c-1.25,0-2.45-.51-3.33-1.4l-3.24-3.35-.1-.09,2.09-2.7c.16,.13,.31,.26,.45,.41l3.25,3.35c.43,.44,1.11,.5,1.61,.14l5.77-4.2c.49-.36,.65-1.03,.37-1.57l-2.2-4.11c-.89-1.66-.68-3.7,.54-5.14,1.14-1.35,2.18-2.78,3.12-4.28,1-1.6,2.87-2.43,4.73-2.1l4.57,.79c.6,.1,1.19-.25,1.38-.83l2.2-6.78c.19-.58-.08-1.22-.63-1.49l-4.16-2.05c-1.71-.83-2.74-2.63-2.59-4.53,.06-.88,.1-1.75,.1-2.59s0-1.71-.1-2.6c-.15-1.9,.87-3.69,2.58-4.53l4.17-2c.58-.27,.86-.94,.64-1.54l-2.2-6.78c-.19-.57-.76-.91-1.35-.83l-4.58,.8c-1.85,.33-3.72-.5-4.72-2.1-.94-1.5-1.98-2.93-3.12-4.28-1.23-1.44-1.46-3.48-.58-5.15l2.17-4.11c.28-.53,.13-1.19-.35-1.55l-5.77-4.19c-.5-.36-1.18-.3-1.61,.14l-3.23,3.33c-1.31,1.36-3.31,1.78-5.06,1.07-1.63-.66-3.3-1.21-5-1.63-1.83-.46-3.2-1.98-3.46-3.85l-.69-4.61c-.09-.6-.61-1.05-1.22-1.06h-7.14c-.61,0-1.13,.46-1.22,1.06l-.65,4.59c-.26,1.87-1.63,3.4-3.46,3.85-1.7,.42-3.37,.97-5,1.63-1.75,.71-3.75,.29-5.06-1.07l-3.25-3.33c-.43-.44-1.11-.5-1.61-.14l-5.79,4.21c-.49,.36-.65,1.03-.36,1.57l2.17,4.11c.89,1.67,.68,3.71-.54,5.15-1.14,1.35-2.18,2.78-3.12,4.28-1.01,1.6-2.89,2.42-4.75,2.08l-4.57-.8c-.61-.1-1.2,.26-1.39,.84l-2.17,6.77c-.19,.59,.08,1.23,.63,1.5l4.17,2c1.71,.84,2.73,2.63,2.58,4.53-.06,.88-.09,1.75-.09,2.6s0,1.72,.09,2.59c.16,1.9-.87,3.7-2.59,4.53l-4.16,2.09c-.55,.27-.82,.91-.63,1.49l2.2,6.78c.19,.58,.78,.93,1.38,.83l4.55-.79c1.85-.33,3.72,.5,4.72,2.09,.93,1.5,1.98,2.94,3.12,4.29,1.22,1.44,1.43,3.48,.54,5.15l-2.17,4.1c-.29,.54-.13,1.21,.36,1.57l5.77,4.2c.51,.39,1.23,.33,1.66-.14l3.5-3.61,1.24,1.2,1.26,1.14-3.54,3.65c-1.62,1.65-4.2,1.87-6.07,.52l-5.77-4.19c-1.86-1.37-2.44-3.89-1.37-5.93l2.17-4.11c.23-.44,.18-.97-.13-1.35-1.25-1.48-2.38-3.04-3.41-4.68-.27-.41-.76-.63-1.24-.54l-4.57,.8c-2.28,.38-4.49-.95-5.22-3.14l-2.2-6.79c-.7-2.19,.29-4.57,2.35-5.61l4.17-2c.46-.23,.73-.71,.69-1.22-.07-1-.11-1.91-.11-2.84s0-1.89,.11-2.85c.04-.51-.23-.99-.69-1.21l-4.17-2.09c-2.05-1.02-3.06-3.37-2.38-5.56l2.2-6.79c.7-2.2,2.9-3.56,5.18-3.21l4.57,.79c.49,.1,.98-.12,1.24-.54,1.02-1.64,2.16-3.2,3.41-4.67,.32-.38,.37-.92,.13-1.35l-2.17-4.11c-1.08-2.04-.49-4.57,1.37-5.93l5.81-4.19c1.87-1.35,4.45-1.13,6.07,.52l3.23,3.33c.34,.36,.87,.47,1.33,.29,1.79-.73,3.63-1.33,5.5-1.79,.47-.12,.83-.52,.9-1l.61-4.57c.33-2.29,2.29-3.99,4.6-4h7.14c2.31,.01,4.27,1.71,4.6,4l.66,4.59c.07,.48,.43,.88,.9,1,1.88,.47,3.72,1.06,5.51,1.79,.46,.18,.98,.07,1.32-.29l3.27-3.32c1.61-1.65,4.18-1.89,6.06-.55l5.77,4.19c1.86,1.36,2.45,3.89,1.37,5.93l-2.2,4.14c-.23,.44-.18,.97,.13,1.35,1.25,1.47,2.38,3.04,3.41,4.67,.26,.42,.75,.64,1.24,.55l4.57-.8c2.28-.39,4.5,.95,5.22,3.14l2.23,6.83c.7,2.2-.3,4.58-2.37,5.6l-4.17,2c-.46,.23-.73,.71-.68,1.22,.07,1,.1,1.92,.1,2.84s0,1.88-.1,2.84c-.05,.51,.22,.99,.68,1.22l4.17,2c2.07,1.03,3.07,3.41,2.37,5.61l-2.2,6.79c-.73,2.19-2.94,3.52-5.22,3.14l-4.57-.8c-.49-.09-.98,.12-1.24,.54-1.02,1.64-2.16,3.2-3.41,4.68-.34,.39-.41,.95-.16,1.4l2.17,4.11c1.08,2.04,.49,4.57-1.37,5.93l-5.77,4.19c-.79,.57-1.73,.88-2.7,.88Z"/><text x="230" y="140" text-anchor="middle" font-family="Arial, Helvetica, sans-serif" font-size="14" letter-spacing="1.5" fill="#4B4B4B" font-weight="600">OREGON MANUFACTURING INNOVATION CENTER</text></svg>